# xmcd
#
# Track frame offsets:
#	183
#	14000
#	27770
#	38858
#	51938
#	73675
#	85358
#	103988
#	118868
#	128283
#	145933
#	163283
#	178923
#	192258
#	208450
#	220445
#	235203
#
# Disc length: 3266
#
# Revision: 1
# Processed by: cddbd v1.5.1PL0 Copyright (c) Steve Scherf et al.
# Submitted via: FreeRIP 2.93 
# Normalized: r0:TDELIM( - ),TSWAP
#
DISCID=0b0cc011
DTITLE=Various Artist - Country Storytellers
DYEAR=1989
DGENRE=Country
TTITLE0=W.Jennings, W.Nelson, J.Cash and K Kristofferson - The Highwayman
TTITLE1=Jimmy Dean - Big Bad John
TTITLE2=Frankie Laine - High Noon
TTITLE3=Johnny Cash - Johnny Reb
TTITLE4=Willie Nelson - City Of New Orleans
TTITLE5=Marty Robbins - Story Of My Life
TTITLE6=Col Joye - Old Dogs, Children and Watermelon Wine
TTITLE7=George Jones - Who's Gonna Fill Their Shoes
TTITLE8=Lester Flatt and Earl Scruggs - Ballad of Jed Clampett
TTITLE9=Johnny Cash - The Blizzard
TTITLE10=O.C. Smith - Hickory Holler's Tramp
TTITLE11=David Allan Coe - Stand By Your Man
TTITLE12=Charlie Rich - Behind Closed Doors
TTITLE13=Bobby Bare - The Gambler
TTITLE14=Stonewall Jackson - Me and You and A Dog named Boo
TTITLE15=Johnny Horton - Sink The Bismarrk
TTITLE16=Johnny Western - Ballad Of Paladin
EXTD=
EXTT0=
EXTT1=
EXTT2=
EXTT3=
EXTT4=
EXTT5=
EXTT6=
EXTT7=
EXTT8=
EXTT9=
EXTT10=
EXTT11=
EXTT12=
EXTT13=
EXTT14=
EXTT15=
EXTT16=
PLAYORDER=
